# xmcd CD database file
#
# Track frame offsets:
#	200
#	14495
#	24582
#	39442
#	54515
#	67960
#	78885
#	89805
#	105920
#	117672
#	131902
#	149760
#	163475
#
# Disc length: 2461 seconds
#
# Revision: 3
# Processed by: cddbd v1.4PL0 Copyright (c) Steve Scherf et al.
# Submitted via: CDex 1.40Beta9
#
DISCID=bb099b0d
DTITLE=Hot Rize - Take It Home
DYEAR=1990
DGENRE=Bluegrass
TTITLE0=Colleen Malone
TTITLE1=Rocky Road Blues
TTITLE2=A Voice on the Wind
TTITLE3=Bending Blades
TTITLE4=Gone Fishing
TTITLE5=Think of What You've Done
TTITLE6=Climb the Ladder
TTITLE7=Money to Burn
TTITLE8=The Bravest Cowboy
TTITLE9=Lamplighting Time in the Valley
TTITLE10=Where the Wild River Rolls
TTITLE11=The Old Rounder
TTITLE12=Tenderly Calling 
EXTD=1990 Sugar Hill Records YEAR: 1990 ID3G: 89
EXTT0=
EXTT1=
EXTT2=
EXTT3=
EXTT4=
EXTT5=
EXTT6=
EXTT7=
EXTT8=
EXTT9=
EXTT10=
EXTT11=
EXTT12=
PLAYORDER=
